<svg width="76" height="76" viewBox="0 0 76 76" fill="none" xmlns="http://www.w3.org/2000/svg">
<path d="M68.506 17.8178L46.4449 32.3V20.0767C46.4462 19.6772 46.3342 19.2855 46.1218 18.9471C45.9094 18.6088 45.6054 18.3376 45.245 18.1652C44.8847 17.9927 44.4828 17.9261 44.086 17.973C43.6893 18.0198 43.314 18.1783 43.0038 18.43L29.7038 29.5556H21.1115V8.57113L8.44488 5.72113V29.5556H4.22266V65.4445C4.22266 66.0044 4.44508 66.5413 4.84099 66.9372C5.2369 67.3332 5.77387 67.5556 6.33377 67.5556H69.6671C70.227 67.5556 70.764 67.3332 71.1599 66.9372C71.5558 66.5413 71.7782 66.0044 71.7782 65.4445V19.57C71.7763 19.1898 71.6717 18.8173 71.4755 18.4916C71.2793 18.1659 70.9989 17.8993 70.6637 17.7198C70.3286 17.5404 69.9512 17.4547 69.5714 17.472C69.1916 17.4892 68.8235 17.6087 68.506 17.8178ZM29.556 61.2222H12.6671V57H29.556V61.2222ZM29.556 52.7778H12.6671V48.5556H29.556V52.7778ZM29.556 44.3334H12.6671V40.1111H29.556V44.3334ZM46.4449 61.2222H42.2227V54.8889H46.4449V61.2222ZM46.4449 48.5556H42.2227V42.2222H46.4449V48.5556ZM54.8893 61.2222H50.6671V54.8889H54.8893V61.2222ZM54.8893 48.5556H50.6671V42.2222H54.8893V48.5556ZM63.3338 61.2222H59.1115V54.8889H63.3338V61.2222ZM63.3338 48.5556H59.1115V42.2222H63.3338V48.5556Z" fill="#196BD9"/>
</svg>
