<svg width="72" height="72" viewBox="0 0 72 72" fill="none" xmlns="http://www.w3.org/2000/svg">
<path d="M43.7758 42.1275L48.7925 33.4559C49.115 32.9184 48.9716 32.2375 48.5058 31.8434L43.2025 27.6867C43.31 26.8984 43.3816 26.0742 43.3816 25.25C43.3816 24.4259 43.31 23.6017 43.2025 22.7775L48.5058 18.6209C48.9716 18.2267 49.115 17.5459 48.7925 17.0084L43.7758 8.33669C43.4533 7.79919 42.8083 7.58419 42.235 7.79919L36 10.3075C34.71 9.30419 33.3125 8.48002 31.7716 7.83502L30.84 1.20585C30.7799 0.916041 30.6229 0.655296 30.395 0.466453C30.1671 0.27761 29.8817 0.1719 29.5858 0.166687H19.5525C18.9433 0.166687 18.4058 0.63252 18.2983 1.24169L17.3666 7.87085C15.8616 8.51585 14.4283 9.34002 13.1383 10.3434L6.90331 7.83502C6.32997 7.62002 5.68497 7.83502 5.36247 8.37252L0.345805 17.0442C0.0233046 17.5817 0.166638 18.2625 0.632472 18.6567L5.9358 22.8134C5.8283 23.6017 5.75664 24.4259 5.75664 25.25C5.75664 26.0742 5.8283 26.8984 5.9358 27.7225L0.632472 31.8792C0.166638 32.2734 0.0233046 32.9542 0.345805 33.4917L5.36247 42.1634C5.68497 42.7009 6.32997 42.9159 6.90331 42.7009L13.1383 40.1925C14.4283 41.1959 15.8258 42.02 17.3666 42.665L18.2983 49.2942C18.4058 49.8675 18.9433 50.3334 19.5525 50.3334H29.5858C30.195 50.3334 30.7325 49.8675 30.84 49.2584L31.7716 42.6292C33.2766 41.9842 34.71 41.16 36 40.1567L42.235 42.665C42.8083 42.88 43.4533 42.665 43.7758 42.1275ZM24.5691 32.4167C20.6275 32.4167 17.4025 29.1917 17.4025 25.25C17.4025 21.3084 20.6275 18.0834 24.5691 18.0834C28.5108 18.0834 31.7358 21.3084 31.7358 25.25C31.7358 29.1917 28.5108 32.4167 24.5691 32.4167ZM71.5466 59.9009L68.1066 57.2492C68.1783 56.7475 68.25 56.21 68.25 55.6725C68.25 55.135 68.2141 54.5975 68.1066 54.0958L71.5108 51.4442C71.7975 51.1934 71.905 50.7634 71.69 50.405L68.465 44.8509C68.2858 44.4925 67.8558 44.385 67.4616 44.4925L63.4841 46.105C62.66 45.46 61.7641 44.9225 60.7608 44.5284L60.1516 40.3C60.1375 40.1085 60.0526 39.9291 59.9135 39.7966C59.7745 39.6642 59.5911 39.5882 59.3991 39.5834H52.985C52.5908 39.5834 52.2325 39.87 52.1966 40.2642L51.5875 44.4925C50.62 44.9225 49.6883 45.4242 48.8641 46.0692L44.8866 44.4567C44.704 44.388 44.503 44.3863 44.3193 44.4519C44.1356 44.5175 43.9811 44.6462 43.8833 44.815L40.6583 50.3692C40.4791 50.7275 40.515 51.1575 40.8375 51.4083L44.2416 54.06C44.0939 55.1059 44.0939 56.1674 44.2416 57.2134L40.8375 59.865C40.5508 60.1159 40.4433 60.5459 40.6583 60.9042L43.8833 66.4584C44.0625 66.8167 44.4925 66.9242 44.8866 66.8167L48.8641 65.2042C49.6883 65.8492 50.5841 66.3867 51.5875 66.7809L52.1966 71.0092C52.2683 71.4034 52.5908 71.69 52.985 71.69H59.3991C59.7933 71.69 60.1516 71.4034 60.1875 71.0092L60.7966 66.7809C61.7641 66.3509 62.6958 65.8492 63.4841 65.2042L67.4975 66.8167C67.8558 66.96 68.2858 66.8167 68.5008 66.4584L71.7258 60.9042C71.9408 60.5817 71.8333 60.1517 71.5466 59.9009ZM56.1741 60.4742C54.8907 60.4737 53.66 59.9634 52.7528 59.0555C51.8456 58.1476 51.3362 56.9166 51.3366 55.6331C51.3371 54.3496 51.8474 53.1189 52.7553 52.2117C53.6632 51.3045 54.8943 50.7951 56.1777 50.7956C57.4612 50.7961 58.6919 51.3064 59.5991 52.2143C60.5063 53.1221 61.0157 54.3532 61.0152 55.6367C61.0148 56.9201 60.5044 58.1508 59.5966 59.0581C58.6887 59.9653 57.4576 60.4747 56.1741 60.4742Z" fill="#196BD9"/>
</svg>
