<svg width="68" height="68" viewBox="0 0 68 68" fill="none" xmlns="http://www.w3.org/2000/svg">
<path d="M53.1932 43.9424C50.5002 47.641 46.138 50.05 41.2231 50.05H34.3267C31.9444 50.05 29.9157 48.5375 29.1475 46.4206C28.1992 46.1378 27.2693 45.7706 26.3619 45.3197C24.4402 44.3649 22.6954 43.0714 21.1594 41.469C11.1961 43.6578 3.73926 52.5356 3.73926 63.1564V64.5446C3.73926 66.4529 5.28634 68 7.19467 68H60.806C62.7143 68 64.2614 66.4529 64.2614 64.5446V63.1564C64.2613 54.9517 59.811 47.7871 53.1932 43.9424Z" fill="#196BD9"/>
<path d="M17.4873 34.3468C18.9724 34.3468 20.265 33.5237 20.9347 32.309C20.9523 32.3571 20.9702 32.4048 20.9883 32.4526C20.9936 32.467 20.9989 32.4813 21.0043 32.4957C22.5753 36.631 25.6322 40.0976 29.6631 41.6123C30.6379 40.0633 32.3618 39.0331 34.3274 39.0331H41.2237C41.9116 39.0331 42.5519 38.839 43.1131 38.5253C44.0557 37.9982 44.9034 36.661 45.3411 35.9523C46.0416 34.8181 46.5844 33.6167 47.0656 32.3069C47.336 32.798 47.7079 33.2253 48.1535 33.56V35.2511C48.1535 39.0722 45.0448 42.181 41.2236 42.181H34.3272C33.0235 42.181 31.9665 43.238 31.9665 44.5417C31.9665 45.8456 33.0235 46.9024 34.3272 46.9024H41.2236C47.6481 46.9024 52.8749 41.6756 52.8749 35.2511V33.56C53.8306 32.8421 54.4488 31.6995 54.4488 30.4123V23.294V20.5643C54.4488 19.2507 53.8045 18.0883 52.8153 17.3737C52.0481 7.66529 43.9029 0 34.0007 0C24.0984 0 15.9534 7.66529 15.1862 17.3735C14.197 18.0882 13.5527 19.2507 13.5527 20.5641V30.412C13.5527 32.5912 15.323 34.3468 17.4873 34.3468ZM34.0007 4.72157C41.3311 4.72157 47.3773 10.3235 48.084 17.4712C47.62 17.8361 47.24 18.3025 46.9782 18.8378C44.7506 13.0261 39.778 8.97982 34.0006 8.97982C28.0987 8.97982 23.2058 13.1651 21.0318 18.8145C21.0288 18.8222 21.026 18.8301 21.023 18.8379C20.7612 18.3027 20.3812 17.8363 19.9172 17.4713C20.6244 10.3235 26.6704 4.72157 34.0007 4.72157Z" fill="#196BD9"/>
</svg>
