<svg width="75" height="80" viewBox="0 0 75 80" fill="none" xmlns="http://www.w3.org/2000/svg">
<g clip-path="url(#clip0)">
<path d="M72.296 65.6L48.322 27.8967V9.87333H53.8916V0H19.884V9.88333H25.4992V27.9067L1.47964 65.6C0.581511 67.004 0.0713285 68.6301 0.00306075 70.3062C-0.065207 71.9823 0.310978 73.6461 1.09182 75.1215C1.87266 76.597 3.02913 77.8293 4.43887 78.6881C5.84861 79.5469 7.45921 80.0001 9.10029 80H64.646C66.29 79.9974 67.9029 79.541 69.3142 78.6792C70.7256 77.8173 71.8832 76.5818 72.6647 75.1032C73.4462 73.6247 73.8226 71.9578 73.7543 70.2787C73.6859 68.5996 73.1753 66.9704 72.2764 65.5633L72.2992 65.6H72.296ZM69.3449 73.2733C68.8879 74.1339 68.2124 74.8525 67.3895 75.3535C66.5665 75.8545 65.6266 76.1193 64.6688 76.12H9.10029C8.13826 76.1214 7.19377 75.8567 6.36695 75.354C5.54014 74.8512 4.8618 74.1292 4.40384 73.2643C3.94589 72.3995 3.72539 71.4241 3.76572 70.4416C3.80604 69.459 4.10569 68.5059 4.6329 67.6833L4.61985 67.7033L29.2362 29.0367V9.86667H44.5166V29.0467L69.1068 67.7133C69.6612 68.55 69.9938 69.5833 69.9938 70.6967C69.9938 71.6467 69.7525 72.54 69.3286 73.3133L69.3416 73.2867L69.3449 73.2733Z" fill="#196BD9"/>
<path d="M46.9954 41.1699H26.8074L8.36716 70.1633C8.27159 70.3096 8.21737 70.4801 8.21047 70.656C8.20357 70.8318 8.24424 71.0062 8.32803 71.1599L8.32477 71.1566C8.48781 71.4466 8.78781 71.6399 9.13347 71.6433H64.6726C64.8368 71.6432 64.998 71.5984 65.1395 71.5134C65.2811 71.4285 65.398 71.3064 65.478 71.1599L65.4813 71.1566C65.5654 71.0034 65.606 70.8293 65.5985 70.6538C65.591 70.4783 65.5357 70.3084 65.4389 70.1633L65.4422 70.1666L46.9954 41.1699Z" fill="#196BD9"/>
</g>
<defs>
<clipPath id="clip0">
<rect width="75" height="80" fill="white"/>
</clipPath>
</defs>
</svg>
