<svg width="96" height="96" viewBox="0 0 96 96" fill="none" xmlns="http://www.w3.org/2000/svg">
<path d="M56.68 54.84L62.28 45.16C62.64 44.56 62.48 43.8 61.96 43.36L56.04 38.72C56.16 37.84 56.24 36.92 56.24 36C56.24 35.08 56.16 34.16 56.04 33.24L61.96 28.6C62.48 28.16 62.64 27.4 62.28 26.8L56.68 17.12C56.32 16.52 55.6 16.28 54.96 16.52L48 19.32C46.56 18.2 45 17.28 43.28 16.56L42.24 9.16C42.1729 8.83649 41.9977 8.54542 41.7433 8.33462C41.4889 8.12382 41.1704 8.00582 40.84 8H29.64C28.96 8 28.36 8.52 28.24 9.2L27.2 16.6C25.52 17.32 23.92 18.24 22.48 19.36L15.52 16.56C14.88 16.32 14.16 16.56 13.8 17.16L8.20001 26.84C7.84001 27.44 8.00001 28.2 8.52001 28.64L14.44 33.28C14.32 34.16 14.24 35.08 14.24 36C14.24 36.92 14.32 37.84 14.44 38.76L8.52001 43.4C8.00001 43.84 7.84001 44.6 8.20001 45.2L13.8 54.88C14.16 55.48 14.88 55.72 15.52 55.48L22.48 52.68C23.92 53.8 25.48 54.72 27.2 55.44L28.24 62.84C28.36 63.48 28.96 64 29.64 64H40.84C41.52 64 42.12 63.48 42.24 62.8L43.28 55.4C44.96 54.68 46.56 53.76 48 52.64L54.96 55.44C55.6 55.68 56.32 55.44 56.68 54.84ZM35.24 44C30.84 44 27.24 40.4 27.24 36C27.24 31.6 30.84 28 35.24 28C39.64 28 43.24 31.6 43.24 36C43.24 40.4 39.64 44 35.24 44ZM87.68 74.68L83.84 71.72C83.92 71.16 84 70.56 84 69.96C84 69.36 83.96 68.76 83.84 68.2L87.64 65.24C87.96 64.96 88.08 64.48 87.84 64.08L84.24 57.88C84.04 57.48 83.56 57.36 83.12 57.48L78.68 59.28C77.76 58.56 76.76 57.96 75.64 57.52L74.96 52.8C74.9442 52.5862 74.8495 52.3859 74.6942 52.2381C74.539 52.0902 74.3343 52.0054 74.12 52H66.96C66.52 52 66.12 52.32 66.08 52.76L65.4 57.48C64.32 57.96 63.28 58.52 62.36 59.24L57.92 57.44C57.7162 57.3633 57.4918 57.3615 57.2867 57.4347C57.0816 57.5079 56.9092 57.6516 56.8 57.84L53.2 64.04C53 64.44 53.04 64.92 53.4 65.2L57.2 68.16C57.035 69.3275 57.035 70.5125 57.2 71.68L53.4 74.64C53.08 74.92 52.96 75.4 53.2 75.8L56.8 82C57 82.4 57.48 82.52 57.92 82.4L62.36 80.6C63.28 81.32 64.28 81.92 65.4 82.36L66.08 87.08C66.16 87.52 66.52 87.84 66.96 87.84H74.12C74.56 87.84 74.96 87.52 75 87.08L75.68 82.36C76.76 81.88 77.8 81.32 78.68 80.6L83.16 82.4C83.56 82.56 84.04 82.4 84.28 82L87.88 75.8C88.12 75.44 88 74.96 87.68 74.68ZM70.52 75.32C69.0873 75.3195 67.7135 74.7498 66.7008 73.7364C65.6881 72.7229 65.1195 71.3487 65.12 69.916C65.1205 68.4833 65.6902 67.1095 66.7036 66.0968C67.7171 65.0841 69.0913 64.5155 70.524 64.516C71.9567 64.5165 73.3305 65.0862 74.3432 66.0996C75.3559 67.1131 75.9246 68.4873 75.924 69.92C75.9235 71.3527 75.3538 72.7265 74.3404 73.7392C73.327 74.7519 71.9527 75.3205 70.52 75.32Z" fill="#196BD9"/>
</svg>
