<svg width="96" height="96" viewBox="0 0 96 96" fill="none" xmlns="http://www.w3.org/2000/svg">
<path d="M24.216 14.94L63.882 31.932L48 38.736L8.562 21.834C9.45 20.928 10.536 20.196 11.772 19.722L24.216 14.934V14.94ZM32.244 11.85L41.544 8.27397C45.7017 6.67561 50.3043 6.67561 54.462 8.27397L84.234 19.722C85.464 20.202 86.55 20.922 87.438 21.834L71.502 28.662L32.244 11.85ZM89.964 27.282L51 43.98V88.68C52.176 88.482 53.34 88.164 54.462 87.732L84.234 76.278C85.9313 75.6244 87.3908 74.472 88.4201 72.9725C89.4494 71.4729 90.0002 69.6968 90 67.878V28.122C90 27.84 89.988 27.558 89.958 27.282H89.964ZM45 88.68V43.98L6.042 27.282C6.01496 27.5612 6.00095 27.8415 6 28.122V67.878C6.00024 69.6975 6.55196 71.4742 7.58239 72.9737C8.61282 74.4733 10.0736 75.6254 11.772 76.278L41.538 87.732C42.666 88.164 43.824 88.482 45 88.68Z" fill="#196BD9"/>
</svg>
