<svg width="32" height="33" viewBox="0 0 32 33"  fill="#196BD9" xmlns="http://www.w3.org/2000/svg">
<g clip-path="url(#clip0)">
<path d="M5.84301 0C2.60624 0 0 2.68769 0 6.0256V26.9744C0 30.3124 2.60624 33 5.84301 33H16.853V20.0991H13.545V15.4543H16.853V11.4861C16.853 8.3684 18.8076 5.50585 23.31 5.50585C25.133 5.50585 26.481 5.68633 26.481 5.68633L26.375 10.0238C26.375 10.0238 25.0002 10.0104 23.5 10.0104C21.8764 10.0104 21.616 10.7819 21.616 12.0626V15.4544H26.504L26.291 20.0991H21.616V33.0001H26.157C29.3938 33.0001 32 30.3124 32 26.9745V6.02564C32 2.68772 29.3938 3.3e-05 26.157 3.3e-05H5.84298L5.84301 0Z"/>
</g>
<defs>
<clipPath id="clip0">
<rect width="32" height="33" fill="white"/>
</clipPath>
</defs>
</svg>
