<svg width="24" height="17" viewBox="0 0 24 17" fill="none" xmlns="http://www.w3.org/2000/svg">
<path d="M11.0119 16.5104C11.122 16.6614 11.2693 16.7849 11.4412 16.8701C11.613 16.9554 11.8042 17 11.9984 17C12.1925 17 12.3837 16.9554 12.5556 16.8701C12.7274 16.7849 12.8748 16.6614 12.9848 16.5104L23.7857 1.77808C23.9107 1.60815 23.984 1.40913 23.9977 1.20262C24.0113 0.996109 23.9648 0.790019 23.8631 0.606738C23.7614 0.423458 23.6085 0.269996 23.4209 0.163028C23.2334 0.0560599 23.0183 -0.000324501 22.7992 1.40484e-06H1.19753C0.978923 0.000854077 0.764699 0.0579636 0.577896 0.165188C0.391092 0.272412 0.238776 0.425695 0.137327 0.608552C0.0358782 0.791408 -0.0108646 0.99692 0.00212512 1.20299C0.0151149 1.40905 0.0873458 1.60788 0.21105 1.77808L11.0119 16.5104Z" fill="#FF1111"/>
</svg>
