<svg width="58" height="58" viewBox="0 0 58 58" fill="none" xmlns="http://www.w3.org/2000/svg">
<path d="M34.2442 33.1325L37.6275 27.2842C37.845 26.9217 37.7484 26.4625 37.4342 26.1967L33.8575 23.3933C33.93 22.8617 33.9784 22.3058 33.9784 21.75C33.9784 21.1942 33.93 20.6383 33.8575 20.0825L37.4342 17.2792C37.7484 17.0133 37.845 16.5542 37.6275 16.1917L34.2442 10.3433C34.0267 9.98083 33.5917 9.83583 33.205 9.98083L29 11.6725C28.13 10.9958 27.1875 10.44 26.1484 10.005L25.5201 5.53416C25.4795 5.33871 25.3737 5.16286 25.22 5.0355C25.0663 4.90814 24.8738 4.83684 24.6742 4.83333H17.9075C17.4967 4.83333 17.1342 5.14749 17.0617 5.55833L16.4334 10.0292C15.4184 10.4642 14.4517 11.02 13.5817 11.6967L9.37672 10.005C8.99005 9.85999 8.55505 10.005 8.33755 10.3675L4.95422 16.2158C4.73672 16.5783 4.83338 17.0375 5.14755 17.3033L8.72422 20.1067C8.65171 20.6383 8.60338 21.1942 8.60338 21.75C8.60338 22.3058 8.65171 22.8617 8.72422 23.4175L5.14755 26.2208C4.83338 26.4867 4.73672 26.9458 4.95422 27.3083L8.33755 33.1567C8.55505 33.5192 8.99005 33.6642 9.37672 33.5192L13.5817 31.8275C14.4517 32.5042 15.3942 33.06 16.4334 33.495L17.0617 37.9658C17.1342 38.3525 17.4967 38.6667 17.9075 38.6667H24.6742C25.085 38.6667 25.4475 38.3525 25.5201 37.9417L26.1484 33.4708C27.1634 33.0358 28.13 32.48 29 31.8033L33.205 33.495C33.5917 33.64 34.0267 33.495 34.2442 33.1325ZM21.2909 26.5833C18.6325 26.5833 16.4575 24.4083 16.4575 21.75C16.4575 19.0917 18.6325 16.9167 21.2909 16.9167C23.9492 16.9167 26.1242 19.0917 26.1242 21.75C26.1242 24.4083 23.9492 26.5833 21.2909 26.5833ZM52.9734 45.1192L50.6534 43.3308C50.7017 42.9925 50.75 42.63 50.75 42.2675C50.75 41.905 50.7259 41.5425 50.6534 41.2042L52.9492 39.4158C53.1425 39.2467 53.215 38.9567 53.07 38.715L50.895 34.9692C50.7742 34.7275 50.4842 34.655 50.2184 34.7275L47.5359 35.815C46.98 35.38 46.3759 35.0175 45.6992 34.7517L45.2884 31.9C45.2788 31.7708 45.2216 31.6498 45.1278 31.5605C45.034 31.4712 44.9104 31.4199 44.7809 31.4167H40.455C40.1892 31.4167 39.9475 31.61 39.9234 31.8758L39.5126 34.7275C38.8601 35.0175 38.2317 35.3558 37.6759 35.7908L34.9934 34.7033C34.8702 34.657 34.7347 34.6559 34.6108 34.7001C34.4868 34.7444 34.3827 34.8311 34.3167 34.945L32.1417 38.6908C32.0209 38.9325 32.045 39.2225 32.2625 39.3917L34.5584 41.18C34.4587 41.8854 34.4587 42.6013 34.5584 43.3067L32.2625 45.095C32.0692 45.2642 31.9967 45.5542 32.1417 45.7958L34.3167 49.5417C34.4375 49.7833 34.7275 49.8558 34.9934 49.7833L37.6759 48.6958C38.2317 49.1308 38.8359 49.4933 39.5126 49.7592L39.9234 52.6108C39.9717 52.8767 40.1892 53.07 40.455 53.07H44.7809C45.0467 53.07 45.2884 52.8767 45.3125 52.6108L45.7234 49.7592C46.3759 49.4692 47.0042 49.1308 47.5359 48.6958L50.2425 49.7833C50.4842 49.88 50.7742 49.7833 50.9192 49.5417L53.0942 45.7958C53.2392 45.5783 53.1667 45.2883 52.9734 45.1192ZM42.6059 45.5058C41.7403 45.5055 40.9103 45.1613 40.2984 44.5491C39.6866 43.9368 39.3431 43.1065 39.3434 42.2409C39.3437 41.3753 39.6879 40.5453 40.3002 39.9335C40.9124 39.3216 41.7427 38.9781 42.6083 38.9784C43.4739 38.9787 44.3039 39.3229 44.9157 39.9352C45.5276 40.5475 45.8711 41.3777 45.8708 42.2433C45.8705 43.1089 45.5263 43.9389 44.914 44.5508C44.3017 45.1626 43.4715 45.5061 42.6059 45.5058Z" fill="white"/>
</svg>
