<svg width="61" height="61" viewBox="0 0 61 61" fill="none" xmlns="http://www.w3.org/2000/svg">
<path d="M15.3872 9.4931L40.5917 20.2901L30.5 24.6135L5.44044 13.8737C6.00469 13.298 6.69475 12.8329 7.48012 12.5317L15.3872 9.48929V9.4931ZM20.4884 7.52967L26.3977 5.25742C29.0396 4.24179 31.9642 4.24179 34.6061 5.25742L53.5237 12.5317C54.3052 12.8367 54.9953 13.2942 55.5596 13.8737L45.4336 18.2123L20.4884 7.52967ZM57.1646 17.3354L32.4062 27.9456V56.3487C33.1535 56.2229 33.8931 56.0209 34.6061 55.7464L53.5237 48.4683C54.6022 48.053 55.5296 47.3207 56.1836 46.3679C56.8376 45.4151 57.1876 44.2865 57.1875 43.1308V17.8692C57.1875 17.69 57.1799 17.5108 57.1608 17.3354H57.1646ZM28.5938 56.3487V27.9456L3.83919 17.3354C3.82201 17.5128 3.8131 17.6909 3.8125 17.8692V43.1308C3.81265 44.2869 4.16322 45.4159 4.81797 46.3687C5.47273 47.3216 6.40091 48.0536 7.48012 48.4683L26.3939 55.7464C27.1107 56.0209 27.8465 56.2229 28.5938 56.3487Z" fill="white"/>
</svg>
