<svg width="50" height="53" viewBox="0 0 50 53" fill="none" xmlns="http://www.w3.org/2000/svg">
<g clip-path="url(#clip0)">
<path d="M48.1973 43.46L32.2147 18.4815V6.54108H35.9278V0H13.256V6.54771H16.9995V18.4882L0.986464 43.46C0.387714 44.3902 0.047593 45.4674 0.00208119 46.5778C-0.0434306 47.6883 0.20736 48.7905 0.727921 49.768C1.24848 50.7455 2.01946 51.5619 2.95929 52.1309C3.89911 52.6998 4.97285 53.0001 6.0669 53H43.0973C44.1934 52.9983 45.2686 52.6959 46.2095 52.1249C47.1505 51.5539 47.9222 50.7355 48.4432 49.7559C48.9641 48.7763 49.2151 47.6721 49.1696 46.5596C49.124 45.4472 48.7836 44.3679 48.1843 43.4357L48.1995 43.46H48.1973ZM46.2299 48.5436C45.9253 49.1137 45.475 49.5898 44.9263 49.9217C44.3777 50.2536 43.7511 50.429 43.1126 50.4295H6.0669C5.42554 50.4304 4.79589 50.2551 4.24468 49.922C3.69346 49.589 3.24124 49.1106 2.93594 48.5376C2.63064 47.9647 2.48363 47.3185 2.51052 46.6675C2.5374 46.0166 2.73717 45.3852 3.08864 44.8402L3.07994 44.8535L19.4908 19.2368V6.53667H29.6778V19.2434L46.0713 44.8601C46.4408 45.4144 46.6626 46.099 46.6626 46.8365C46.6626 47.4659 46.5017 48.0577 46.2191 48.5701L46.2278 48.5524L46.2299 48.5436Z" fill="white"/>
<path d="M31.3303 27.2751H17.8716L5.57811 46.4832C5.5144 46.5802 5.47825 46.6931 5.47365 46.8096C5.46904 46.9261 5.49616 47.0416 5.55202 47.1435L5.54985 47.1413C5.65854 47.3334 5.85854 47.4615 6.08898 47.4637H43.1151C43.2245 47.4637 43.332 47.434 43.4264 47.3777C43.5208 47.3214 43.5986 47.2406 43.652 47.1435L43.6542 47.1413C43.7103 47.0398 43.7373 46.9244 43.7323 46.8082C43.7273 46.6919 43.6905 46.5793 43.6259 46.4832L43.6281 46.4854L31.3303 27.2751Z" fill="white"/>
</g>
<defs>
<clipPath id="clip0">
<rect width="50" height="53" fill="white"/>
</clipPath>
</defs>
</svg>
