<svg width="33" height="22" viewBox="0 0 33 22" fill="none" xmlns="http://www.w3.org/2000/svg">
<path d="M27.1598 8.17706L32.562 6.24418L30.53 5.15383L29.6874 3.07227L27.1598 8.17706Z" fill="white"/>
<path d="M9.86275 12.6378C9.31758 11.9935 8.52461 12.3405 7.97943 12.5387H7.92987C7.23601 12.8361 6.49259 12.8361 5.79874 12.5387H5.74918C5.20401 12.3405 4.41103 11.9935 3.86585 12.6378C3.61805 12.8856 3.51892 13.2326 3.56848 13.5299C3.6676 14.0255 4.16322 14.5211 4.80751 14.8185C5.45181 15.0663 6.14567 15.215 6.83952 15.215C7.53338 15.215 8.22723 15.0663 8.87153 14.8185C9.56539 14.5211 10.0114 14.0255 10.1106 13.5299C10.2097 13.183 10.1106 12.8856 9.86275 12.6378ZM9.76363 13.4804C9.66451 13.8769 9.26803 14.2733 8.72285 14.5212C7.53338 15.0168 6.14567 15.0168 4.9562 14.5212C4.41102 14.2733 4.01453 13.8769 3.91541 13.4804C3.86585 13.2821 3.91541 13.0839 4.11366 12.8856C4.26234 12.6874 4.46058 12.6378 4.65883 12.6378C4.90663 12.6378 5.25357 12.7369 5.60049 12.8856H5.65005C6.39347 13.183 7.28557 13.183 8.02899 12.8856H8.07856C8.72285 12.6378 9.21846 12.4891 9.56539 12.8856C9.71408 13.0343 9.81319 13.2326 9.76363 13.4804Z" fill="white"/>
<path d="M8.82193 13.2325C6.39343 14.8185 4.80747 13.3316 4.75791 13.2325C4.70835 13.183 4.55966 13.183 4.5101 13.2325C4.46054 13.2821 4.46054 13.4308 4.5101 13.4803C4.5101 13.4803 5.35264 14.2733 6.69079 14.2733C7.38465 14.2733 8.17763 14.0751 9.06973 13.4803C9.16885 13.4308 9.16885 13.3316 9.11929 13.2325C9.02017 13.183 8.92105 13.1334 8.82193 13.2325Z" fill="white"/>
<path d="M30.9758 18.7837V15.81C30.9758 12.8859 30.1332 10.0609 28.5473 7.63242C28.3986 7.38462 28.2003 7.08726 27.9525 6.78989C25.3753 3.41973 21.5096 1.33815 17.2969 0.991224V0H15.0666V0.991224C11.5478 1.23903 8.22716 2.77543 5.69954 5.25349C4.90656 4.6092 3.86577 4.31183 2.72587 4.55964C1.13991 4.90657 0 6.34384 0 7.97936C0 9.41663 0.842539 10.6061 2.08157 11.1513C1.58596 12.6381 1.33815 14.1745 1.33815 15.7605V18.7341H0.396491V20.9644H2.62675V20.1219H10.9035V21.0635H13.1337V18.8333H12.1921V15.81C12.1921 14.0754 13.332 12.5885 14.9675 12.0929V12.8859H17.1977V12.1425C17.7925 12.3407 18.3872 12.6381 18.8333 13.0842C19.5767 13.8276 19.9732 14.8188 19.9732 15.8596V18.8828H19.0315V21.1131H21.2618V20.1219H29.5385V21.014H31.7687V18.7837H30.9758ZM15.4135 0.446048H16.9004V1.93288H15.4135V0.446048ZM3.46929 4.95612C5.15437 4.95612 6.54208 6.34384 6.54208 8.02892C6.54208 9.06971 6.04647 10.0114 5.20393 10.6061L2.82499 5.05525C3.07279 4.95613 3.27104 4.95612 3.46929 4.95612ZM2.27982 20.667H0.792983V19.1802H2.27982V20.667ZM12.7868 20.7166H11.3V19.2298H12.7868V20.7166ZM16.9004 12.4894H15.4135V11.0026H16.9004V12.4894ZM21.014 20.7166H19.5271V19.2298H21.014V20.7166ZM21.3609 19.7749V18.8333H20.4192V15.81C20.4192 14.6701 19.9732 13.5798 19.1802 12.7868C18.635 12.2416 17.9907 11.8947 17.2969 11.6964V10.6061H15.0666V11.6964C13.1833 12.1921 11.9443 13.8771 11.9443 15.81V18.8333H10.9035V19.7749H2.62675V18.7837H1.68508V15.81C1.68508 14.2736 1.93289 12.7868 2.37894 11.3495C2.72587 11.4486 3.0728 11.4982 3.46929 11.4982C4.16314 11.4982 4.80744 11.3 5.40217 10.9035C6.09603 10.4574 6.59164 9.714 6.83945 8.97058C7.23594 10.4079 8.62365 11.4982 10.2096 11.4982C10.9035 11.4982 11.5478 11.3 12.1425 10.9035C13.1337 10.2592 13.7285 9.16883 13.7285 7.97936C13.7285 5.79866 11.6965 4.06403 9.4662 4.55964C8.1776 4.857 7.23593 5.79866 6.88901 6.98813C6.74032 6.3934 6.44296 5.89779 5.99691 5.5013C8.42541 3.0728 11.6469 1.58596 15.0666 1.33816V2.23025H17.2969V1.33816C21.4104 1.63553 25.1771 3.71709 27.6552 6.98813C27.903 7.2855 28.0516 7.53331 28.2499 7.78112C29.8359 10.1601 30.6288 12.8859 30.6288 15.7109V18.6846H29.6872V19.6758H21.3609V19.7749ZM9.56532 5.00569C9.76356 4.95612 10.0114 4.95612 10.2096 4.95612C11.8947 4.95612 13.2824 6.34384 13.2824 8.02892C13.2824 9.06971 12.7868 10.0114 11.9443 10.6061L9.56532 5.00569ZM31.5209 20.667H30.0341V19.1802H31.5209V20.667Z" fill="white"/>
</svg>
