<svg width="31" height="19" viewBox="0 0 31 19" fill="none" xmlns="http://www.w3.org/2000/svg">
<path d="M0.469727 0H31V18.7121H0.469727V0Z" fill="white"/>
<path d="M0.469727 0H31V2.46212H0.469727V0Z" fill="#D22F27"/>
<path d="M0.469727 4.43185H31V6.40155H0.469727V4.43185Z" fill="#D22F27"/>
<path d="M0.469727 8.37119H31V10.3409H0.469727V8.37119Z" fill="#D22F27"/>
<path d="M0.469727 0H16.2273V10.3409H0.469727V0Z" fill="#1E50A0"/>
<path d="M0.469727 12.3106H31V14.2803H0.469727V12.3106Z" fill="#D22F27"/>
<path d="M2.68564 3.32389C3.16157 3.32389 3.54738 2.93807 3.54738 2.46214C3.54738 1.98622 3.16157 1.6004 2.68564 1.6004C2.20971 1.6004 1.8239 1.98622 1.8239 2.46214C1.8239 2.93807 2.20971 3.32389 2.68564 3.32389Z" fill="white"/>
<path d="M6.62502 3.32389C7.10094 3.32389 7.48676 2.93807 7.48676 2.46214C7.48676 1.98622 7.10094 1.6004 6.62502 1.6004C6.14909 1.6004 5.76328 1.98622 5.76328 2.46214C5.76328 2.93807 6.14909 3.32389 6.62502 3.32389Z" fill="white"/>
<path d="M10.5644 3.32389C11.0403 3.32389 11.4262 2.93807 11.4262 2.46214C11.4262 1.98622 11.0403 1.6004 10.5644 1.6004C10.0885 1.6004 9.70267 1.98622 9.70267 2.46214C9.70267 2.93807 10.0885 3.32389 10.5644 3.32389Z" fill="white"/>
<path d="M14.5038 3.32389C14.9797 3.32389 15.3655 2.93807 15.3655 2.46214C15.3655 1.98622 14.9797 1.6004 14.5038 1.6004C14.0279 1.6004 13.6421 1.98622 13.6421 2.46214C13.6421 2.93807 14.0279 3.32389 14.5038 3.32389Z" fill="white"/>
<path d="M12.5341 5.29355C13.01 5.29355 13.3959 4.90774 13.3959 4.43181C13.3959 3.95588 13.01 3.57007 12.5341 3.57007C12.0582 3.57007 11.6724 3.95588 11.6724 4.43181C11.6724 4.90774 12.0582 5.29355 12.5341 5.29355Z" fill="white"/>
<path d="M8.5947 5.29355C9.07062 5.29355 9.45644 4.90774 9.45644 4.43181C9.45644 3.95588 9.07062 3.57007 8.5947 3.57007C8.11877 3.57007 7.73296 3.95588 7.73296 4.43181C7.73296 4.90774 8.11877 5.29355 8.5947 5.29355Z" fill="white"/>
<path d="M4.65535 5.29355C5.13128 5.29355 5.51709 4.90774 5.51709 4.43181C5.51709 3.95588 5.13128 3.57007 4.65535 3.57007C4.17942 3.57007 3.79361 3.95588 3.79361 4.43181C3.79361 4.90774 4.17942 5.29355 4.65535 5.29355Z" fill="white"/>
<path d="M2.68564 7.26325C3.16157 7.26325 3.54738 6.87743 3.54738 6.40151C3.54738 5.92558 3.16157 5.53976 2.68564 5.53976C2.20971 5.53976 1.8239 5.92558 1.8239 6.40151C1.8239 6.87743 2.20971 7.26325 2.68564 7.26325Z" fill="white"/>
<path d="M6.62502 7.26325C7.10094 7.26325 7.48676 6.87743 7.48676 6.40151C7.48676 5.92558 7.10094 5.53976 6.62502 5.53976C6.14909 5.53976 5.76328 5.92558 5.76328 6.40151C5.76328 6.87743 6.14909 7.26325 6.62502 7.26325Z" fill="white"/>
<path d="M10.5644 7.26325C11.0403 7.26325 11.4262 6.87743 11.4262 6.40151C11.4262 5.92558 11.0403 5.53976 10.5644 5.53976C10.0885 5.53976 9.70267 5.92558 9.70267 6.40151C9.70267 6.87743 10.0885 7.26325 10.5644 7.26325Z" fill="white"/>
<path d="M14.5038 7.26325C14.9797 7.26325 15.3655 6.87743 15.3655 6.40151C15.3655 5.92558 14.9797 5.53976 14.5038 5.53976C14.0279 5.53976 13.6421 5.92558 13.6421 6.40151C13.6421 6.87743 14.0279 7.26325 14.5038 7.26325Z" fill="white"/>
<path d="M12.5341 9.23294C13.01 9.23294 13.3959 8.84713 13.3959 8.3712C13.3959 7.89528 13.01 7.50946 12.5341 7.50946C12.0582 7.50946 11.6724 7.89528 11.6724 8.3712C11.6724 8.84713 12.0582 9.23294 12.5341 9.23294Z" fill="white"/>
<path d="M8.5947 9.23294C9.07062 9.23294 9.45644 8.84713 9.45644 8.3712C9.45644 7.89528 9.07062 7.50946 8.5947 7.50946C8.11877 7.50946 7.73296 7.89528 7.73296 8.3712C7.73296 8.84713 8.11877 9.23294 8.5947 9.23294Z" fill="white"/>
<path d="M4.65535 9.23294C5.13128 9.23294 5.51709 8.84713 5.51709 8.3712C5.51709 7.89528 5.13128 7.50946 4.65535 7.50946C4.17942 7.50946 3.79361 7.89528 3.79361 8.3712C3.79361 8.84713 4.17942 9.23294 4.65535 9.23294Z" fill="white"/>
<path d="M0.469727 16.25H31V18.7121H0.469727V16.25Z" fill="#D22F27"/>
</svg>
