<svg width="49" height="103" viewBox="0 0 49 103" fill="none" xmlns="http://www.w3.org/2000/svg">
<path d="M39.2 42.2153H9.8V34.3333C9.8 33.0325 10.3162 31.785 11.2352 30.8651C12.1541 29.9453 13.4004 29.4286 14.7 29.4286H19.6V4.90476C19.6 3.60394 20.1162 2.35639 21.0352 1.43657C21.9541 0.51675 23.2004 0 24.5 0C25.7996 0 27.0459 0.51675 27.9648 1.43657C28.8837 2.35639 29.4 3.60394 29.4 4.90476V29.4286H34.3C35.5996 29.4286 36.8459 29.9453 37.7648 30.8651C38.6837 31.785 39.2 33.0325 39.2 34.3333V42.2153ZM43.1641 47.12C44.9784 48.4904 46.45 50.264 47.4627 52.3008C48.4755 54.3376 49.0017 56.582 49 58.8571V93.1905C49 95.7921 47.9675 98.2872 46.1296 100.127C44.2918 101.966 41.7991 103 39.2 103H9.8C7.20088 103 4.70821 101.966 2.87035 100.127C1.0325 98.2872 0 95.7921 0 93.1905V58.8571C0 54.0652 2.2883 49.8079 5.8359 47.12H43.1641Z" fill="#196BD9"/>
</svg>
