<svg width="121" height="81" viewBox="0 0 121 81" fill="none" xmlns="http://www.w3.org/2000/svg">
<path d="M13.8033 68.7048C14.4321 72.1726 16.1222 75.0888 18.8734 77.4533C21.6246 79.8178 24.7296 81 28.1883 81H92.8027C96.2614 81 99.3664 79.8178 102.118 77.4533C104.869 75.0888 106.559 72.1726 107.188 68.7048L120.865 6.28274C121.18 4.86405 120.944 3.52419 120.158 2.26314C119.372 1.00208 118.271 0.292744 116.856 0.135113C115.441 -0.18015 114.105 0.0562969 112.847 0.844454C111.59 1.63261 110.882 2.73603 110.725 4.15471L106.716 24.0163C106.559 23.701 106.205 23.3463 105.655 22.9523C105.105 22.5582 104.672 22.2035 104.358 21.8882C100.585 17.4746 96.0256 15.2677 90.6804 15.2677C85.3351 15.2677 80.776 17.4746 77.0029 21.8882C74.8019 24.2527 72.6795 25.4349 70.6357 25.4349C68.592 25.4349 66.391 24.2527 64.0328 21.8882C60.2597 17.4746 55.7005 15.2677 50.3553 15.2677C44.8528 15.2677 40.3723 17.4746 36.9136 21.8882C34.5554 24.2527 32.3544 25.4349 30.3106 25.4349C28.2669 25.4349 26.0659 24.2527 23.7077 21.8882C20.5634 18.4203 16.8689 16.2135 12.6242 15.2677L10.266 4.15471C9.95157 2.89366 9.16551 1.86906 7.90781 1.0809C6.6501 0.292744 5.3924 -0.0225188 4.1347 0.135113C2.877 0.292744 1.81581 1.04149 0.951138 2.38136C0.086467 3.72123 -0.188655 5.02168 0.12577 6.28274L13.8033 68.7048ZM16.6331 28.9817C20.4062 33.3953 24.9654 35.6022 30.3106 35.6022C35.6559 35.6022 40.2151 33.3953 43.9882 28.9817C46.1891 26.6172 48.3115 25.4349 50.3553 25.4349C52.399 25.4349 54.6 26.6172 56.9582 28.9817C61.3602 33.3953 65.9193 35.6022 70.6357 35.6022C76.1382 35.6022 80.6188 33.3953 84.0774 28.9817C86.4356 26.6172 88.6366 25.4349 90.6804 25.4349C92.7241 25.4349 94.9251 26.6172 97.2833 28.9817C99.9559 31.6614 102.471 33.4741 104.83 34.4199L97.755 66.8132C97.2833 69.4929 95.6326 70.8328 92.8027 70.8328H28.1883C25.3584 70.8328 23.7077 69.4929 23.2361 66.8132L15.2182 27.563L16.6331 28.9817Z" fill="#196BD9"/>
</svg>
