<svg width="104" height="105" viewBox="0 0 104 105" fill="none" xmlns="http://www.w3.org/2000/svg">
<path d="M78.1416 91.875C72.2406 91.875 67.5465 93.1909 64.0596 95.8228C60.5726 98.4546 58.8291 101.514 58.8291 105H45.9541C45.9541 101.514 44.2106 98.4546 40.7236 95.8228C37.2367 93.1909 32.5426 91.875 26.6416 91.875C24.9652 91.875 22.769 92.5928 20.0532 94.0283C17.3374 95.4639 15.2419 96.9336 13.7666 98.4375L0.891602 85.3125C5.65267 82.7832 10.0617 78.3398 14.1187 71.9824C18.1756 65.625 20.2041 59.1309 20.2041 52.5C20.2041 42.4512 15.9124 33.7012 7.3291 26.25L13.7666 13.125C14.236 13.6035 14.8898 14.2017 15.728 14.9194C16.5662 15.6372 18.1253 16.6113 20.4053 17.8418C22.6852 19.0723 24.764 19.6875 26.6416 19.6875C30.598 19.6875 34.085 18.6621 37.1025 16.6113C40.1201 14.5605 42.3498 12.0654 43.7915 9.12598C45.2332 6.18652 45.9541 3.14453 45.9541 0H58.8291C58.8291 3.14453 59.55 6.18652 60.9917 9.12598C62.4334 12.0654 64.6631 14.5605 67.6807 16.6113C70.6982 18.6621 74.1852 19.6875 78.1416 19.6875C80.0192 19.6875 82.0309 19.1406 84.1768 18.0469C86.3226 16.9531 87.999 15.8594 89.2061 14.7656L91.0166 13.125L97.4541 26.25C88.8708 33.7012 84.5791 42.4512 84.5791 52.5C84.5791 59.1309 86.6076 65.625 90.6646 71.9824C94.7215 78.3398 99.1305 82.7832 103.892 85.3125L91.0166 98.4375C89.2731 96.7285 87.1273 95.2075 84.5791 93.8745C82.0309 92.5415 79.8851 91.875 78.1416 91.875Z" fill="#196BD9"/>
</svg>
