<svg width="72" height="103" viewBox="0 0 72 103" fill="none" xmlns="http://www.w3.org/2000/svg">
<path d="M41.9768 4.44396C40.3527 -1.34577 31.8641 -1.61534 30.0232 4.44396C20.4566 36.1808 0 44.805 0 67.1733C0 86.9767 16.1018 103 36 103C55.8982 103 72 86.9767 72 67.1733C72 44.6924 51.5884 36.3256 41.9768 4.44396ZM36 90.125C23.3693 90.125 13.0909 80.0161 13.0909 67.5938C13.0909 65.8154 14.5555 64.375 16.3636 64.375C18.1718 64.375 19.6364 65.8154 19.6364 67.5938C19.6364 76.4675 26.9775 83.6875 36 83.6875C37.8082 83.6875 39.2727 85.1279 39.2727 86.9063C39.2727 88.6846 37.8082 90.125 36 90.125Z" fill="#196BD9"/>
</svg>
