<svg width="95" height="104" viewBox="0 0 95 104" fill="none" xmlns="http://www.w3.org/2000/svg">
<path d="M91.3981 0.0966797H3.65605C1.7177 0.0966797 0.146362 1.69336 0.146362 3.66297V32.1933C0.146362 34.1629 1.7177 35.7596 3.65605 35.7596H91.3981C93.3365 35.7596 94.9078 34.1629 94.9078 32.1933V3.66297C94.9078 1.69336 93.3365 0.0966797 91.3981 0.0966797Z" fill="#196BD9"/>
<path d="M91.3383 1.31763H87.7722V23.2424L40.3786 38.0346C39.6205 38.2602 38.9602 38.7279 38.5017 39.3641C38.0433 40.0003 37.8128 40.7687 37.8466 41.5482V46.9943H30.7144V99.6981C30.7144 100.63 31.0901 101.524 31.7589 102.183C32.4277 102.841 33.3347 103.212 34.2805 103.212H48.545C49.4908 103.212 50.3978 102.841 51.0666 102.183C51.7354 101.524 52.1111 100.63 52.1111 99.6981V46.9943H44.9789V44.1131L92.3725 29.4263C93.1306 29.2008 93.7909 28.733 94.2493 28.0969C94.7077 27.4607 94.9382 26.6922 94.9044 25.9127V4.83121C94.9044 3.89935 94.5287 3.00566 93.8599 2.34673C93.1912 1.68781 92.2841 1.31763 91.3383 1.31763Z" fill="#196BD9"/>
</svg>
