<svg width="80" height="106" viewBox="0 0 80 106" fill="none" xmlns="http://www.w3.org/2000/svg">
<path d="M49.3673 33.125H18.2479C14.9619 33.1249 11.7946 34.3612 9.36821 36.591C6.9418 38.8209 5.43163 41.8832 5.13435 45.1763L0.945597 91.5513C0.780092 93.3847 0.996061 95.2327 1.57973 96.9774C2.1634 98.7221 3.10196 100.325 4.33557 101.685C5.56918 103.044 7.07075 104.13 8.74455 104.873C10.4184 105.616 12.2276 106 14.0571 106H53.5581C55.3877 106 57.1972 105.616 58.8712 104.874C60.5453 104.131 62.0471 103.045 63.2809 101.686C64.5148 100.326 65.4535 98.7227 66.0373 96.9779C66.6211 95.233 66.8371 93.3848 66.6716 91.5513L62.4828 45.1763C62.1855 41.8828 60.6751 38.8202 58.2482 36.5903C55.8214 34.3604 52.6536 33.1244 49.3673 33.125ZM33.8076 86.125C26.9936 86.125 21.4635 80.6739 21.4635 73.9619C21.4635 68.7861 28.8082 58.3373 32.1617 53.824C32.3536 53.5671 32.6024 53.3587 32.8883 53.2153C33.1741 53.072 33.4892 52.9975 33.8086 52.9979C34.128 52.9983 34.4429 53.0736 34.7284 53.2177C35.0139 53.3617 35.2621 53.5708 35.4534 53.8281C38.8131 58.3414 46.1516 68.7903 46.1516 73.966C46.1516 80.6739 40.6215 86.125 33.8076 86.125ZM78.9272 19.4734L70.0168 10.5048C67.5476 8.02055 64.199 6.62498 60.7074 6.625H46.9746C46.9746 4.86794 46.281 3.18285 45.0463 1.94042C43.8117 0.697989 42.1371 0 40.3911 0L27.2241 0C25.478 0 23.8035 0.697989 22.5688 1.94042C21.3342 3.18285 20.6406 4.86794 20.6406 6.625V26.5H46.9746V19.875H60.7074L69.6177 28.8415C69.9234 29.1492 70.2863 29.3933 70.6857 29.5598C71.0852 29.7263 71.5133 29.812 71.9456 29.812C72.3779 29.812 72.8061 29.7263 73.2055 29.5598C73.6049 29.3933 73.9678 29.1492 74.2735 28.8415L78.9272 24.1585C79.2329 23.8509 79.4755 23.4857 79.641 23.0837C79.8064 22.6818 79.8916 22.251 79.8916 21.8159C79.8916 21.3808 79.8064 20.95 79.641 20.5481C79.4755 20.1462 79.2329 19.781 78.9272 19.4734Z" fill="#196BD9"/>
</svg>
