<svg width="121" height="105" viewBox="0 0 121 105" fill="none" xmlns="http://www.w3.org/2000/svg">
<path d="M76.494 11.887C76.7567 11.1366 76.7798 10.323 76.5599 9.55894C76.34 8.79484 75.8881 8.11797 75.2667 7.62196L73.9012 6.63241C69.1087 3.46501 63.6669 1.41254 57.9763 0.626044C47.6742 -0.739387 34.5492 2.07585 21.7847 16.6814H13.6995C13.195 16.6815 12.6954 16.7811 12.2294 16.9746C11.7634 17.1681 11.3402 17.4517 10.984 17.809L1.11915 27.6815C0.402449 28.4005 0 29.3742 0 30.3894C0 31.4045 0.402449 32.3783 1.11915 33.0972L20.8412 52.8806C21.1975 53.2378 21.6207 53.5212 22.0867 53.7146C22.5527 53.9079 23.0522 54.0074 23.5567 54.0074C24.0612 54.0074 24.5607 53.9079 25.0267 53.7146C25.4927 53.5212 25.9159 53.2378 26.2722 52.8806L36.1371 42.9851C36.8541 42.2663 37.2568 41.2925 37.257 40.2772V35.3755L101.593 103.44C101.921 103.884 102.341 104.253 102.824 104.52C103.307 104.788 103.842 104.948 104.393 104.989C104.943 105.031 105.496 104.953 106.014 104.761C106.532 104.569 107.002 104.268 107.393 103.877L118.899 92.3707C119.595 91.6747 119.996 90.7379 120.02 89.7542C120.045 88.7704 119.69 87.815 119.029 87.0854L49.0013 20.8851C54.7315 17.3871 62.5942 14.4491 72.8733 14.4491C73.6679 14.4497 74.443 14.2035 75.0916 13.7445C75.7402 13.2856 76.2302 12.6365 76.494 11.887Z" fill="#196BD9"/>
</svg>
