<svg width="32" height="33" viewBox="0 0 32 33" fill="#196BD9" xmlns="http://www.w3.org/2000/svg">
<path d="M26.6667 10.3555C25.8889 10.7135 25.0486 10.957 24.1458 11.0859C25.0903 10.513 25.7361 9.67513 26.0833 8.57227C25.1806 9.11654 24.25 9.48177 23.2917 9.66797C22.4444 8.72266 21.3819 8.25 20.1042 8.25C18.8958 8.25 17.8646 8.69043 17.0104 9.57129C16.1562 10.4521 15.7292 11.5156 15.7292 12.7617C15.7292 13.1771 15.7639 13.5208 15.8333 13.793C14.0417 13.6927 12.3611 13.2272 10.7917 12.3965C9.22222 11.5658 7.88889 10.4557 6.79167 9.06641C6.38889 9.78255 6.1875 10.5417 6.1875 11.3438C6.1875 12.9766 6.81944 14.2298 8.08333 15.1035C7.43056 15.0892 6.73611 14.903 6 14.5449V14.5879C6 15.6621 6.34722 16.6182 7.04167 17.4561C7.73611 18.2939 8.59028 18.8132 9.60417 19.0137C9.20139 19.1283 8.84722 19.1855 8.54167 19.1855C8.36111 19.1855 8.09028 19.1569 7.72917 19.0996C8.02083 20.002 8.53819 20.7467 9.28125 21.334C10.0243 21.9212 10.8681 22.222 11.8125 22.2363C10.2014 23.5254 8.38889 24.1699 6.375 24.1699C6.01389 24.1699 5.66667 24.1484 5.33333 24.1055C7.38889 25.4518 9.625 26.125 12.0417 26.125C13.5972 26.125 15.0556 25.8708 16.4167 25.3623C17.7778 24.8538 18.9444 24.1735 19.9167 23.3213C20.8889 22.4691 21.7257 21.488 22.4271 20.3779C23.1285 19.2679 23.6493 18.1077 23.9896 16.8975C24.3299 15.6872 24.5 14.4805 24.5 13.2773C24.5 13.0195 24.4931 12.8262 24.4792 12.6973C25.3542 12.0527 26.0833 11.2721 26.6667 10.3555ZM32 6.1875V26.8125C32 28.5169 31.4132 29.9743 30.2396 31.1846C29.066 32.3949 27.6528 33 26 33H6C4.34722 33 2.93403 32.3949 1.76042 31.1846C0.586806 29.9743 0 28.5169 0 26.8125V6.1875C0 4.48307 0.586806 3.02572 1.76042 1.81543C2.93403 0.605143 4.34722 0 6 0H26C27.6528 0 29.066 0.605143 30.2396 1.81543C31.4132 3.02572 32 4.48307 32 6.1875Z" />
</svg>
