<svg width="39" height="39" viewBox="0 0 39 39" fill="#196BD9" xmlns="http://www.w3.org/2000/svg">
<path d="M35.6117 10.6123C35.5935 9.9142 35.5395 9.21751 35.4499 8.52496C35.3291 7.91838 35.1277 7.33066 34.8512 6.77743C34.562 6.17729 34.1736 5.63025 33.7024 5.15934C33.2268 4.69366 32.6807 4.30595 32.0843 4.0105C31.5303 3.73938 30.9426 3.54348 30.3367 3.42799C29.6508 3.32524 28.959 3.26579 28.2656 3.25H10.6123C9.9142 3.26818 9.21751 3.32219 8.52496 3.41181C7.91838 3.53263 7.33066 3.73397 6.77743 4.0105C6.17729 4.29971 5.63025 4.68811 5.15934 5.15934C4.69366 5.63491 4.30595 6.18099 4.0105 6.77743C3.73938 7.3314 3.54348 7.91911 3.42799 8.52496C3.32524 9.21092 3.26579 9.90267 3.25 10.5961V28.2494C3.26818 28.9475 3.32219 29.6442 3.41181 30.3367C3.53263 30.9433 3.73397 31.531 4.0105 32.0843C4.29971 32.6844 4.68811 33.2315 5.15934 33.7024C5.63491 34.168 6.18099 34.5558 6.77743 34.8512C7.3314 35.1223 7.91911 35.3182 8.52496 35.4337C9.21092 35.5365 9.90267 35.5959 10.5961 35.6117H28.2494C28.9475 35.5935 29.6442 35.5395 30.3367 35.4499C30.9433 35.3291 31.531 35.1277 32.0843 34.8512C32.6844 34.562 33.2315 34.1736 33.7024 33.7024C34.168 33.2268 34.5558 32.6807 34.8512 32.0843C35.1223 31.5303 35.3182 30.9426 35.4337 30.3367C35.5365 29.6508 35.5959 28.959 35.6117 28.2656V11.4699V10.6123ZM19.803 30.7574C17.8598 30.7479 15.9506 30.2469 14.253 29.3012L8.10426 30.9193L9.72234 24.9C8.67886 23.1467 8.12041 21.1475 8.10426 19.1072C8.1107 16.8143 8.79551 14.5745 10.0724 12.67C11.3494 10.7655 13.1613 9.28146 15.28 8.40476C17.3988 7.52806 19.7295 7.29792 21.9788 7.74332C24.2281 8.18873 26.2953 9.28976 27.92 10.9078C29.5448 12.5257 30.6544 14.5883 31.1091 16.8357C31.5639 19.0832 31.3434 21.4149 30.4756 23.5372C29.6077 25.6596 28.1312 27.4777 26.232 28.7625C24.3328 30.0474 22.0959 30.7415 19.803 30.7574ZM19.803 9.51199C18.0875 9.53162 16.4079 10.0055 14.9351 10.8853C13.4623 11.7652 12.2489 13.0196 11.4186 14.5208C10.5882 16.022 10.1705 17.7165 10.2079 19.4317C10.2453 21.1469 10.7366 22.8215 11.6317 24.2851L11.8582 24.6573L10.8874 28.2009L14.5766 27.1977L14.9326 27.408C16.4043 28.2749 18.0788 28.7382 19.7868 28.751C22.3617 28.751 24.8311 27.7282 26.6518 25.9075C28.4725 24.0868 29.4953 21.6174 29.4953 19.0425C29.4953 16.4677 28.4725 13.9983 26.6518 12.1776C24.8311 10.3569 22.3617 9.334 19.7868 9.334L19.803 9.51199ZM25.4663 23.2981C25.2544 23.6516 24.9706 23.9566 24.6333 24.1936C24.2961 24.4305 23.9128 24.594 23.5084 24.6734C22.9041 24.7839 22.282 24.745 21.6962 24.5602C21.145 24.3879 20.6046 24.1825 20.0781 23.9453C18.0777 22.9416 16.3718 21.4363 15.1267 19.5765C14.4502 18.7148 14.0397 17.6745 13.9455 16.583C13.9359 16.1296 14.0217 15.6792 14.1973 15.2611C14.3729 14.843 14.6344 14.4664 14.9649 14.1559C15.0623 14.0455 15.1817 13.9568 15.3155 13.8955C15.4493 13.8342 15.5945 13.8016 15.7416 13.7999H16.1947C16.3727 13.7999 16.6154 13.7999 16.8419 14.3015C17.0684 14.8031 17.6671 16.3079 17.748 16.4536C17.7878 16.5312 17.8085 16.6172 17.8085 16.7044C17.8085 16.7916 17.7878 16.8776 17.748 16.9552C17.6765 17.131 17.5783 17.2947 17.4568 17.4406C17.3112 17.6186 17.1494 17.8289 17.0199 17.9584C16.8905 18.0878 16.7287 18.2496 16.8905 18.5409C17.3307 19.2839 17.8757 19.9597 18.5085 20.5473C19.1977 21.1563 19.9857 21.6433 20.8386 21.9874C21.1298 22.1331 21.3078 22.1169 21.4696 21.9874C21.6314 21.858 22.1978 21.146 22.3919 20.8548C22.5861 20.5635 22.7803 20.6121 23.0392 20.7091C23.2981 20.8062 24.7382 21.502 25.0294 21.6476C25.3207 21.7933 25.4987 21.858 25.5796 21.9874C25.6497 22.4109 25.6108 22.8453 25.4663 23.2495V23.2981Z" />
</svg>
